<svg width="620" height="622" viewBox="0 0 620 622" fill="none" xmlns="http://www.w3.org/2000/svg">
<g filter="url(#filter0_d_466_61)">
<path d="M10.1303 530.431L10.373 602.4L610.163 600.377L609.921 528.408L10.1303 530.431Z" fill="#D4F2F4"/>
</g>
<g filter="url(#filter1_d_466_61)">
<path d="M9.89844 461.835L9.56469 362.877C9.40376 315.158 40.8454 269.288 96.9729 235.356C153.1 201.424 229.316 182.21 308.853 181.942C388.39 181.674 464.734 200.373 521.089 233.925C577.444 267.478 609.194 313.136 609.355 360.854L609.689 459.812L9.89844 461.835Z" fill="#734B6D"/>
</g>
<g filter="url(#filter2_d_466_61)">
<path d="M608.679 99.3376L608.296 0.379883L297.355 78.6454L8.50796 3.0693L8.89059 102.027L608.679 99.3376Z" fill="#04445F"/>
</g>
<path d="M8.87225 133.472L9.25488 232.43L297.204 154.961L609.043 229.741L608.66 130.783L8.87225 133.472Z" fill="#74E7DA"/>
<path d="M9.90971 465.209L9.66699 393.239L609.457 391.216L609.7 463.186L9.90971 465.209Z" fill="#D4F2F4"/>
<path d="M377.779 495.505C377.654 458.241 347.344 428.135 310.081 428.261C272.817 428.386 242.711 458.696 242.837 495.96C242.963 533.223 273.272 563.329 310.536 563.203C347.799 563.078 377.905 532.768 377.779 495.505Z" fill="#04445F"/>
<g filter="url(#filter3_i_466_61)">
<path d="M378.342 288.878C378.216 251.614 347.907 221.508 310.643 221.634C273.38 221.76 243.274 252.07 243.399 289.333C243.525 326.596 273.835 356.702 311.098 356.577C348.362 356.451 378.468 326.141 378.342 288.878Z" fill="#04445F"/>
</g>
<defs>
<filter id="filter0_d_466_61" x="1.12988" y="528.408" width="618.033" height="92.9922" filterUnits="userSpaceOnUse" color-interpolation-filters="sRGB">
<feFlood flood-opacity="0" result="BackgroundImageFix"/>
<feColorMatrix in="SourceAlpha" type="matrix" values="0 0 0 0 0 0 0 0 0 0 0 0 0 0 0 0 0 0 127 0" result="hardAlpha"/>
<feOffset dy="10"/>
<feGaussianBlur stdDeviation="4.5"/>
<feComposite in2="hardAlpha" operator="out"/>
<feColorMatrix type="matrix" values="0 0 0 0 0 0 0 0 0 0 0 0 0 0 0 0 0 0 0.25 0"/>
<feBlend mode="normal" in2="BackgroundImageFix" result="effect1_dropShadow_466_61"/>
<feBlend mode="normal" in="SourceGraphic" in2="effect1_dropShadow_466_61" result="shape"/>
</filter>
<filter id="filter1_d_466_61" x="0.564453" y="181.939" width="618.124" height="303.896" filterUnits="userSpaceOnUse" color-interpolation-filters="sRGB">
<feFlood flood-opacity="0" result="BackgroundImageFix"/>
<feColorMatrix in="SourceAlpha" type="matrix" values="0 0 0 0 0 0 0 0 0 0 0 0 0 0 0 0 0 0 127 0" result="hardAlpha"/>
<feOffset dy="15"/>
<feGaussianBlur stdDeviation="4.5"/>
<feComposite in2="hardAlpha" operator="out"/>
<feColorMatrix type="matrix" values="0 0 0 0 0 0 0 0 0 0 0 0 0 0 0 0 0 0 0.3 0"/>
<feBlend mode="normal" in2="BackgroundImageFix" result="effect1_dropShadow_466_61"/>
<feBlend mode="normal" in="SourceGraphic" in2="effect1_dropShadow_466_61" result="shape"/>
</filter>
<filter id="filter2_d_466_61" x="4.50781" y="0.379883" width="608.171" height="114.647" filterUnits="userSpaceOnUse" color-interpolation-filters="sRGB">
<feFlood flood-opacity="0" result="BackgroundImageFix"/>
<feColorMatrix in="SourceAlpha" type="matrix" values="0 0 0 0 0 0 0 0 0 0 0 0 0 0 0 0 0 0 127 0" result="hardAlpha"/>
<feOffset dy="9"/>
<feGaussianBlur stdDeviation="2"/>
<feComposite in2="hardAlpha" operator="out"/>
<feColorMatrix type="matrix" values="0 0 0 0 0 0 0 0 0 0 0 0 0 0 0 0 0 0 0.25 0"/>
<feBlend mode="normal" in2="BackgroundImageFix" result="effect1_dropShadow_466_61"/>
<feBlend mode="normal" in="SourceGraphic" in2="effect1_dropShadow_466_61" result="shape"/>
</filter>
<filter id="filter3_i_466_61" x="243.399" y="221.634" width="134.943" height="138.944" filterUnits="userSpaceOnUse" color-interpolation-filters="sRGB">
<feFlood flood-opacity="0" result="BackgroundImageFix"/>
<feBlend mode="normal" in="SourceGraphic" in2="BackgroundImageFix" result="shape"/>
<feColorMatrix in="SourceAlpha" type="matrix" values="0 0 0 0 0 0 0 0 0 0 0 0 0 0 0 0 0 0 127 0" result="hardAlpha"/>
<feOffset dy="4"/>
<feGaussianBlur stdDeviation="4"/>
<feComposite in2="hardAlpha" operator="arithmetic" k2="-1" k3="1"/>
<feColorMatrix type="matrix" values="0 0 0 0 0.185941 0 0 0 0 0.185941 0 0 0 0 0.185941 0 0 0 1 0"/>
<feBlend mode="normal" in2="shape" result="effect1_innerShadow_466_61"/>
</filter>
</defs>
</svg>
